<?xml version="1.0" encoding="iso-8859-1"?>
<!-- Generator: Adobe Illustrator 18.0.0, SVG Export Plug-In . SVG Version: 6.00 Build 0)  -->
<!DOCTYPE svg PUBLIC "-//W3C//DTD SVG 1.1//EN" "http://www.w3.org/Graphics/SVG/1.1/DTD/svg11.dtd">
<svg xmlns="http://www.w3.org/2000/svg" xmlns:xlink="http://www.w3.org/1999/xlink" version="1.1" id="Capa_1" x="0px" y="0px" viewBox="0 0 297 297" style="enable-background:new 0 0 297 297;" xml:space="preserve" width="512px" height="512px">
<g>
	<path d="M87.937,84.762h8.681v8.681c0,3.894,3.156,7.05,7.05,7.05s7.05-3.156,7.05-7.05v-8.681h8.681c3.894,0,7.05-3.156,7.05-7.05   c0-3.894-3.156-7.05-7.05-7.05h-8.681v-8.681c0-3.894-3.156-7.05-7.05-7.05s-7.05,3.156-7.05,7.05v8.681h-8.681   c-3.894,0-7.05,3.156-7.05,7.05C80.887,81.606,84.043,84.762,87.937,84.762z" fill="#757575"/>
	<path d="M250.792,49.966L203.775,2.949C201.886,1.061,199.325,0,196.654,0H53.33c-5.562,0-10.071,4.509-10.071,10.071v276.858   c0,5.562,4.509,10.071,10.071,10.071H243.67c5.562,0,10.071-4.509,10.071-10.071V57.088   C253.741,54.416,252.68,51.855,250.792,49.966z M206.725,34.385l12.632,12.632h-12.632V34.385z M63.401,276.858V20.142h123.182   v36.946c0,5.562,4.509,10.071,10.071,10.071h36.946v209.7H63.401z" fill="#757575"/>
	<path d="M209.063,124.147H87.937c-3.894,0-7.05,3.156-7.05,7.05s3.156,7.05,7.05,7.05h121.127c3.894,0,7.05-3.156,7.05-7.05   S212.957,124.147,209.063,124.147z" fill="#757575"/>
	<path d="M209.063,158.754H87.937c-3.894,0-7.05,3.156-7.05,7.05s3.156,7.05,7.05,7.05h121.127c3.894,0,7.05-3.156,7.05-7.05   S212.957,158.754,209.063,158.754z" fill="#757575"/>
	<path d="M209.063,193.362H87.937c-3.894,0-7.05,3.156-7.05,7.05s3.156,7.05,7.05,7.05h121.127c3.894,0,7.05-3.156,7.05-7.05   S212.957,193.362,209.063,193.362z" fill="#757575"/>
	<path d="M209.063,227.969h-51.912c-3.894,0-7.05,3.156-7.05,7.05s3.156,7.05,7.05,7.05h51.912c3.894,0,7.05-3.156,7.05-7.05   S212.957,227.969,209.063,227.969z" fill="#757575"/>
</g>
<g>
</g>
<g>
</g>
<g>
</g>
<g>
</g>
<g>
</g>
<g>
</g>
<g>
</g>
<g>
</g>
<g>
</g>
<g>
</g>
<g>
</g>
<g>
</g>
<g>
</g>
<g>
</g>
<g>
</g>
</svg>
